<svg width="30" height="30" viewBox="0 0 30 30" fill="none" xmlns="http://www.w3.org/2000/svg">
<g clip-path="url(#clip0_67_187)">
<path d="M15 1.46484C16.8279 1.46484 18.6003 1.8225 20.268 2.52791C21.8796 3.20953 23.3273 4.1857 24.5708 5.42924C25.8144 6.67277 26.7905 8.12039 27.4721 9.73201C28.1775 11.3997 28.5352 13.1721 28.5352 15C28.5352 16.8279 28.1775 18.6003 27.4721 20.268C26.7905 21.8796 25.8143 23.3273 24.5708 24.5708C23.3272 25.8144 21.8796 26.7905 20.268 27.4721C18.6003 28.1775 16.8279 28.5352 15 28.5352C13.1721 28.5352 11.3997 28.1775 9.73195 27.4721C8.12039 26.7905 6.67271 25.8143 5.42918 24.5708C4.18564 23.3272 3.20953 21.8796 2.52785 20.268C1.8225 18.6003 1.46484 16.8279 1.46484 15C1.46484 13.1721 1.8225 11.3997 2.52791 9.73195C3.20953 8.12039 4.1857 6.67271 5.42924 5.42918C6.67277 4.18564 8.12039 3.20953 9.73201 2.52785C11.3997 1.8225 13.1721 1.46484 15 1.46484ZM15 0C6.71572 0 0 6.71572 0 15C0 23.2843 6.71572 30 15 30C23.2843 30 30 23.2843 30 15C30 6.71572 23.2843 0 15 0Z" fill="black"/>
<path d="M20.9883 21.7207C20.8921 21.7208 20.7968 21.7019 20.7079 21.6651C20.619 21.6283 20.5383 21.5743 20.4704 21.5062L8.49379 9.52963C8.2078 9.24363 8.2078 8.77986 8.49379 8.49381C8.77985 8.20775 9.24356 8.20775 9.52961 8.49381L21.5062 20.4704C21.7922 20.7564 21.7922 21.2201 21.5062 21.5062C21.4382 21.5743 21.3575 21.6283 21.2686 21.6651C21.1797 21.7019 21.0845 21.7208 20.9883 21.7207Z" fill="black"/>
<path d="M9.0117 21.7207C8.9155 21.7208 8.82023 21.7019 8.73135 21.6651C8.64247 21.6283 8.56174 21.5743 8.49379 21.5062C8.2078 21.2201 8.2078 20.7564 8.49379 20.4704L20.4704 8.49381C20.7564 8.20775 21.2202 8.20775 21.5062 8.49381C21.7922 8.7798 21.7922 9.24357 21.5062 9.52963L9.52961 21.5062C9.46167 21.5743 9.38094 21.6283 9.29206 21.6651C9.20318 21.7019 9.10791 21.7208 9.0117 21.7207Z" fill="black"/>
</g>
<defs>
<clipPath id="clip0_67_187">
<rect width="30" height="30" fill="white"/>
</clipPath>
</defs>
</svg>
