<svg width="100" height="81" viewBox="0 0 100 81" fill="none" xmlns="http://www.w3.org/2000/svg">
<mask id="path-1-outside-1_100_2" maskUnits="userSpaceOnUse" x="16" y="25" width="69" height="54" fill="black">
<rect fill="white" x="16" y="25" width="69" height="54"/>
<path d="M55.8187 61.1799C55.8187 50.9351 59.2005 41.5356 65.9641 32.9817C70.2411 27.8095 73.6726 25.5716 76.2587 26.2678C78.6458 27.163 79.8394 28.5058 79.8394 30.2961C79.8394 31.987 79.0437 33.7774 77.4523 35.6672C75.9603 37.5571 74.7667 39.0988 73.8715 40.2923C72.9763 41.4859 72.2304 42.7789 71.6336 44.1715C70.2411 46.9565 69.5448 50.3383 69.5448 54.3169C71.932 53.6206 74.3191 53.919 76.7063 55.212C81.0827 57.6987 83.2709 60.8815 83.2709 64.7606C83.2709 68.5403 82.0774 71.6237 79.6902 74.0109C77.4025 76.2985 74.2197 77.4424 70.1416 77.4424C66.0635 77.4424 62.632 75.9007 59.847 72.8173C57.1615 69.6344 55.8187 65.7553 55.8187 61.1799ZM17.0275 61.1799C17.0275 50.5372 20.3595 41.1378 27.0237 32.9817C32.0964 26.9143 36.3236 25.0742 39.7054 27.4614C40.4017 27.9587 40.7498 28.7544 40.7498 29.8485C40.7498 31.8378 40.0038 33.7774 38.5118 35.6672C37.1193 37.5571 35.9755 39.0988 35.0803 40.2923C34.1851 41.4859 33.4391 42.7789 32.8423 44.1715C31.4498 46.9565 30.7536 50.3383 30.7536 54.3169C33.1407 53.6206 35.4782 53.919 37.7658 55.212C42.0428 57.6987 44.1813 60.8815 44.1813 64.7606C44.1813 68.5403 43.0375 71.6237 40.7498 74.0109C38.4621 76.2985 35.2792 77.4424 31.2012 77.4424C27.1231 77.4424 23.7413 75.9007 21.0558 72.8173C18.3702 69.6344 17.0275 65.7553 17.0275 61.1799Z"/>
</mask>
<path d="M65.9641 32.9817L65.1934 32.3444L65.1865 32.3528L65.1797 32.3614L65.9641 32.9817ZM76.2587 26.2678L76.6098 25.3315L76.5649 25.3147L76.5187 25.3022L76.2587 26.2678ZM77.4523 35.6672L76.6873 35.0231L76.6772 35.0352L76.6674 35.0476L77.4523 35.6672ZM71.6336 44.1715L72.528 44.6187L72.5411 44.5924L72.5527 44.5654L71.6336 44.1715ZM69.5448 54.3169H68.5448V55.6502L69.8248 55.2769L69.5448 54.3169ZM76.7063 55.212L77.2003 54.3426L77.1915 54.3376L77.1825 54.3327L76.7063 55.212ZM79.6902 74.0109L80.3973 74.718L79.6902 74.0109ZM59.847 72.8173L59.0827 73.4622L59.0936 73.475L59.1049 73.4876L59.847 72.8173ZM27.0237 32.9817L26.2564 32.3402L26.2493 32.349L27.0237 32.9817ZM39.7054 27.4614L40.2867 26.6476L40.2821 26.6444L39.7054 27.4614ZM38.5118 35.6672L37.7269 35.0476L37.7166 35.0606L37.7068 35.074L38.5118 35.6672ZM32.8423 44.1715L33.7368 44.6187L33.7499 44.5924L33.7615 44.5654L32.8423 44.1715ZM30.7536 54.3169H29.7536V55.6502L31.0336 55.2769L30.7536 54.3169ZM37.7658 55.212L38.2685 54.3475L38.2579 54.3415L37.7658 55.212ZM40.7498 74.0109L41.4569 74.718L41.4644 74.7104L41.4718 74.7028L40.7498 74.0109ZM21.0558 72.8173L20.2915 73.4622L20.2965 73.4682L20.3017 73.4741L21.0558 72.8173ZM55.8187 61.1799H56.8187C56.8187 51.1752 60.1149 41.9915 66.7485 33.6019L65.9641 32.9817L65.1797 32.3614C58.2861 41.0798 54.8187 50.6949 54.8187 61.1799H55.8187ZM65.9641 32.9817L66.7347 33.6189C68.8444 31.0677 70.697 29.3018 72.2917 28.2617C73.8951 27.216 75.0981 26.991 75.9987 27.2334L76.2587 26.2678L76.5187 25.3022C74.8332 24.8484 73.0273 25.3942 71.1992 26.5865C69.3624 27.7844 67.3608 29.7235 65.1934 32.3444L65.9641 32.9817ZM76.2587 26.2678L75.9076 27.2041C77.0088 27.6171 77.7438 28.101 78.1968 28.6106C78.6315 29.0997 78.8394 29.6468 78.8394 30.2961H79.8394H80.8394C80.8394 29.1551 80.4505 28.1356 79.6916 27.2819C78.9511 26.4488 77.8957 25.8137 76.6098 25.3315L76.2587 26.2678ZM79.8394 30.2961H78.8394C78.8394 31.6635 78.1952 33.2325 76.6873 35.0231L77.4523 35.6672L78.2172 36.3114C79.8922 34.3222 80.8394 32.3105 80.8394 30.2961H79.8394ZM77.4523 35.6672L76.6674 35.0476C75.173 36.9405 73.9737 38.4894 73.0715 39.6923L73.8715 40.2923L74.6715 40.8923C75.5597 39.7081 76.7476 38.1736 78.2371 36.2869L77.4523 35.6672ZM73.8715 40.2923L73.0715 39.6923C72.1278 40.9506 71.3421 42.313 70.7144 43.7775L71.6336 44.1715L72.5527 44.5654C73.1186 43.2449 73.8249 42.0212 74.6715 40.8923L73.8715 40.2923ZM71.6336 44.1715L70.7391 43.7242C69.2607 46.6812 68.5448 50.2248 68.5448 54.3169H69.5448H70.5448C70.5448 50.4517 71.2215 47.2317 72.528 44.6187L71.6336 44.1715ZM69.5448 54.3169L69.8248 55.2769C71.9347 54.6615 74.0511 54.9111 76.23 56.0913L76.7063 55.212L77.1825 54.3327C74.5871 52.9269 71.9293 52.5797 69.2648 53.3569L69.5448 54.3169ZM76.7063 55.212L76.2123 56.0815C80.3833 58.4514 82.2709 61.3497 82.2709 64.7606H83.2709H84.2709C84.2709 60.4133 81.7822 56.9459 77.2003 54.3426L76.7063 55.212ZM83.2709 64.7606H82.2709C82.2709 68.3098 81.1596 71.1273 78.9831 73.3038L79.6902 74.0109L80.3973 74.718C82.9952 72.1201 84.2709 68.7709 84.2709 64.7606H83.2709ZM79.6902 74.0109L78.9831 73.3038C76.9288 75.3581 74.0272 76.4424 70.1416 76.4424V77.4424V78.4424C74.4121 78.4424 77.8762 77.239 80.3973 74.718L79.6902 74.0109ZM70.1416 77.4424V76.4424C66.3524 76.4424 63.1886 75.025 60.5891 72.147L59.847 72.8173L59.1049 73.4876C62.0754 76.7764 65.7747 78.4424 70.1416 78.4424V77.4424ZM59.847 72.8173L60.6113 72.1724C58.0933 69.1882 56.8187 65.5442 56.8187 61.1799H55.8187H54.8187C54.8187 65.9664 56.2296 70.0807 59.0827 73.4622L59.847 72.8173ZM17.0275 61.1799H18.0275C18.0275 50.7652 21.2815 41.5899 27.798 33.6144L27.0237 32.9817L26.2493 32.349C19.4376 40.6857 16.0275 50.3092 16.0275 61.1799H17.0275ZM27.0237 32.9817L27.7908 33.6231C30.2893 30.6347 32.4943 28.7966 34.3977 27.968C36.2346 27.1684 37.7601 27.3123 39.1287 28.2784L39.7054 27.4614L40.2821 26.6444C38.2689 25.2233 35.9899 25.0937 33.5995 26.1342C31.2757 27.1457 28.8307 29.2613 26.2565 32.3403L27.0237 32.9817ZM39.7054 27.4614L39.1242 28.2751C39.4856 28.5333 39.7498 28.9774 39.7498 29.8485H40.7498H41.7498C41.7498 28.5314 41.3177 27.3841 40.2866 26.6476L39.7054 27.4614ZM40.7498 29.8485H39.7498C39.7498 31.5686 39.1098 33.2959 37.7269 35.0476L38.5118 35.6672L39.2967 36.2869C40.8978 34.2589 41.7498 32.1071 41.7498 29.8485H40.7498ZM38.5118 35.6672L37.7068 35.074C36.3151 36.9627 35.1731 38.5019 34.2803 39.6923L35.0803 40.2923L35.8803 40.8923C36.7778 39.6956 37.9235 38.1514 39.3169 36.2604L38.5118 35.6672ZM35.0803 40.2923L34.2803 39.6923C33.3366 40.9506 32.5509 42.313 31.9232 43.7775L32.8423 44.1715L33.7615 44.5654C34.3274 43.2449 35.0336 42.0212 35.8803 40.8923L35.0803 40.2923ZM32.8423 44.1715L31.9479 43.7242C30.4694 46.6812 29.7536 50.2248 29.7536 54.3169H30.7536H31.7536C31.7536 50.4517 32.4302 47.2317 33.7368 44.6187L32.8423 44.1715ZM30.7536 54.3169L31.0336 55.2769C33.1459 54.6608 35.206 54.9138 37.2738 56.0826L37.7658 55.212L38.2579 54.3415C35.7503 52.9241 33.1356 52.5804 30.4736 53.3569L30.7536 54.3169ZM37.7658 55.212L37.2632 56.0765C41.3302 58.4411 43.1813 61.3381 43.1813 64.7606H44.1813H45.1813C45.1813 60.4249 42.7554 56.9562 38.2685 54.3475L37.7658 55.212ZM44.1813 64.7606H43.1813C43.1813 68.3223 42.1113 71.1449 40.0278 73.319L40.7498 74.0109L41.4718 74.7028C43.9636 72.1025 45.1813 68.7583 45.1813 64.7606H44.1813ZM40.7498 74.0109L40.0427 73.3038C37.9884 75.3581 35.0868 76.4424 31.2012 76.4424V77.4424V78.4424C35.4717 78.4424 38.9358 77.239 41.4569 74.718L40.7498 74.0109ZM31.2012 77.4424V76.4424C27.4132 76.4424 24.3061 75.0265 21.8099 72.1605L21.0558 72.8173L20.3017 73.4741C23.1766 76.7748 26.8331 78.4424 31.2012 78.4424V77.4424ZM21.0558 72.8173L21.8201 72.1724C19.3021 69.1882 18.0275 65.5442 18.0275 61.1799H17.0275H16.0275C16.0275 65.9664 17.4384 70.0807 20.2915 73.4622L21.0558 72.8173Z" fill="black" mask="url(#path-1-outside-1_100_2)"/>
</svg>
