<svg width="35" height="34" viewBox="0 0 35 34" fill="none" xmlns="http://www.w3.org/2000/svg">
<path d="M17.7898 14.7417C16.3561 14.7417 15.1916 15.9062 15.1916 17.3399C15.1916 18.7735 16.3561 19.9409 17.7898 19.9409C19.2234 19.9409 20.3908 18.7735 20.3908 17.3399C20.3908 15.9062 19.2234 14.7417 17.7898 14.7417Z" fill="white"/>
<path d="M21.7111 10.2568H13.8684C12.1259 10.2568 10.7064 11.6763 10.7064 13.4188V21.2615C10.7064 23.0068 12.1259 24.4235 13.8684 24.4235H21.7111C23.4564 24.4235 24.8731 23.0068 24.8731 21.2615V13.4188C24.8731 11.6763 23.4564 10.2568 21.7111 10.2568ZM17.7898 21.9302C15.2596 21.9302 13.1998 19.8703 13.1998 17.3402C13.1998 14.81 15.2596 12.753 17.7898 12.753C20.3199 12.753 22.3798 14.81 22.3798 17.3402C22.3798 19.8703 20.3199 21.9302 17.7898 21.9302ZM22.4761 13.586C21.9406 13.586 21.5043 13.1525 21.5043 12.617C21.5043 12.0815 21.9406 11.6452 22.4761 11.6452C23.0116 11.6452 23.4479 12.0815 23.4479 12.617C23.4479 13.1525 23.0116 13.586 22.4761 13.586Z" fill="white"/>
</svg>
